<svg width="1800" height="30" viewBox="0 0 1800 30" fill="none" xmlns="http://www.w3.org/2000/svg">
<g clip-path="url(#clip0_8_2)">
<line x1="-0.75" y1="32.701" x2="38.2211" y2="10.201" stroke="black" stroke-width="3"/>
<line x1="12.25" y1="32.701" x2="51.2211" y2="10.201" stroke="black" stroke-width="3"/>
<line x1="25.25" y1="32.701" x2="64.2211" y2="10.201" stroke="black" stroke-width="3"/>
<line x1="38.25" y1="32.701" x2="77.2211" y2="10.201" stroke="black" stroke-width="3"/>
<line x1="51.25" y1="32.701" x2="90.2211" y2="10.201" stroke="black" stroke-width="3"/>
<line x1="64.25" y1="32.701" x2="103.221" y2="10.201" stroke="black" stroke-width="3"/>
<line x1="77.25" y1="32.701" x2="116.221" y2="10.201" stroke="black" stroke-width="3"/>
<line x1="90.25" y1="32.701" x2="129.221" y2="10.201" stroke="black" stroke-width="3"/>
<line x1="103.25" y1="32.701" x2="142.221" y2="10.201" stroke="black" stroke-width="3"/>
<line x1="116.25" y1="32.701" x2="155.221" y2="10.201" stroke="black" stroke-width="3"/>
<line x1="129.25" y1="32.701" x2="168.221" y2="10.201" stroke="black" stroke-width="3"/>
<line x1="142.25" y1="32.701" x2="181.221" y2="10.201" stroke="black" stroke-width="3"/>
<line x1="155.25" y1="32.701" x2="194.221" y2="10.201" stroke="black" stroke-width="3"/>
<line x1="168.25" y1="32.701" x2="207.221" y2="10.201" stroke="black" stroke-width="3"/>
<line x1="181.25" y1="32.701" x2="220.221" y2="10.201" stroke="black" stroke-width="3"/>
<line x1="194.25" y1="32.701" x2="233.221" y2="10.201" stroke="black" stroke-width="3"/>
<line x1="207.25" y1="32.701" x2="246.221" y2="10.201" stroke="black" stroke-width="3"/>
<line x1="220.25" y1="32.701" x2="259.221" y2="10.201" stroke="black" stroke-width="3"/>
<line x1="233.25" y1="32.701" x2="272.221" y2="10.201" stroke="black" stroke-width="3"/>
<line x1="246.25" y1="32.701" x2="285.221" y2="10.201" stroke="black" stroke-width="3"/>
<line x1="259.25" y1="32.701" x2="298.221" y2="10.201" stroke="black" stroke-width="3"/>
<line x1="272.25" y1="32.701" x2="311.221" y2="10.201" stroke="black" stroke-width="3"/>
<line x1="285.25" y1="32.701" x2="324.221" y2="10.201" stroke="black" stroke-width="3"/>
<line x1="298.25" y1="32.701" x2="337.221" y2="10.201" stroke="black" stroke-width="3"/>
<line x1="311.25" y1="32.701" x2="350.221" y2="10.201" stroke="black" stroke-width="3"/>
<line x1="324.25" y1="32.701" x2="363.221" y2="10.201" stroke="black" stroke-width="3"/>
<line x1="337.25" y1="32.701" x2="376.221" y2="10.201" stroke="black" stroke-width="3"/>
<line x1="350.25" y1="32.701" x2="389.221" y2="10.201" stroke="black" stroke-width="3"/>
<line x1="363.25" y1="32.701" x2="402.221" y2="10.201" stroke="black" stroke-width="3"/>
<line x1="376.25" y1="32.701" x2="415.221" y2="10.201" stroke="black" stroke-width="3"/>
<line x1="389.25" y1="32.701" x2="428.221" y2="10.201" stroke="black" stroke-width="3"/>
<line x1="402.25" y1="32.701" x2="441.221" y2="10.201" stroke="black" stroke-width="3"/>
<line x1="415.25" y1="32.701" x2="454.221" y2="10.201" stroke="black" stroke-width="3"/>
<line x1="428.25" y1="32.701" x2="467.221" y2="10.201" stroke="black" stroke-width="3"/>
<line x1="441.25" y1="32.701" x2="480.221" y2="10.201" stroke="black" stroke-width="3"/>
<line x1="454.25" y1="32.701" x2="493.221" y2="10.201" stroke="black" stroke-width="3"/>
<line x1="467.25" y1="32.701" x2="506.221" y2="10.201" stroke="black" stroke-width="3"/>
<line x1="480.25" y1="32.701" x2="519.221" y2="10.201" stroke="black" stroke-width="3"/>
<line x1="493.25" y1="32.701" x2="532.221" y2="10.201" stroke="black" stroke-width="3"/>
<line x1="506.25" y1="32.701" x2="545.221" y2="10.201" stroke="black" stroke-width="3"/>
<line x1="519.25" y1="32.701" x2="558.221" y2="10.201" stroke="black" stroke-width="3"/>
<line x1="532.25" y1="32.701" x2="571.221" y2="10.201" stroke="black" stroke-width="3"/>
<line x1="545.25" y1="32.701" x2="584.221" y2="10.201" stroke="black" stroke-width="3"/>
<line x1="558.25" y1="32.701" x2="597.221" y2="10.201" stroke="black" stroke-width="3"/>
<line x1="571.25" y1="32.701" x2="610.221" y2="10.201" stroke="black" stroke-width="3"/>
<line x1="584.25" y1="32.701" x2="623.221" y2="10.201" stroke="black" stroke-width="3"/>
<line x1="597.25" y1="32.701" x2="636.221" y2="10.201" stroke="black" stroke-width="3"/>
<line x1="610.25" y1="32.701" x2="649.221" y2="10.201" stroke="black" stroke-width="3"/>
<line x1="623.25" y1="32.701" x2="662.221" y2="10.201" stroke="black" stroke-width="3"/>
<line x1="636.25" y1="32.701" x2="675.221" y2="10.201" stroke="black" stroke-width="3"/>
<line x1="649.25" y1="32.701" x2="688.221" y2="10.201" stroke="black" stroke-width="3"/>
<line x1="662.25" y1="32.701" x2="701.221" y2="10.201" stroke="black" stroke-width="3"/>
<line x1="675.25" y1="32.701" x2="714.221" y2="10.201" stroke="black" stroke-width="3"/>
<line x1="688.25" y1="32.701" x2="727.221" y2="10.201" stroke="black" stroke-width="3"/>
<line x1="701.25" y1="32.701" x2="740.221" y2="10.201" stroke="black" stroke-width="3"/>
<line x1="714.25" y1="32.701" x2="753.221" y2="10.201" stroke="black" stroke-width="3"/>
<line x1="727.25" y1="32.701" x2="766.221" y2="10.201" stroke="black" stroke-width="3"/>
<line x1="740.25" y1="32.701" x2="779.221" y2="10.201" stroke="black" stroke-width="3"/>
<line x1="753.25" y1="32.701" x2="792.221" y2="10.201" stroke="black" stroke-width="3"/>
<line x1="766.25" y1="32.701" x2="805.221" y2="10.201" stroke="black" stroke-width="3"/>
<line x1="779.25" y1="32.701" x2="818.221" y2="10.201" stroke="black" stroke-width="3"/>
<line x1="792.25" y1="32.701" x2="831.221" y2="10.201" stroke="black" stroke-width="3"/>
<line x1="805.25" y1="32.701" x2="844.221" y2="10.201" stroke="black" stroke-width="3"/>
<line x1="818.25" y1="32.701" x2="857.221" y2="10.201" stroke="black" stroke-width="3"/>
<line x1="831.25" y1="32.701" x2="870.221" y2="10.201" stroke="black" stroke-width="3"/>
<line x1="844.25" y1="32.701" x2="883.221" y2="10.201" stroke="black" stroke-width="3"/>
<line x1="857.25" y1="32.701" x2="896.221" y2="10.201" stroke="black" stroke-width="3"/>
<line x1="870.25" y1="32.701" x2="909.221" y2="10.201" stroke="black" stroke-width="3"/>
<line x1="883.25" y1="32.701" x2="922.221" y2="10.201" stroke="black" stroke-width="3"/>
<line x1="896.25" y1="32.701" x2="935.221" y2="10.201" stroke="black" stroke-width="3"/>
<line x1="909.25" y1="32.701" x2="948.221" y2="10.201" stroke="black" stroke-width="3"/>
<line x1="922.25" y1="32.701" x2="961.221" y2="10.201" stroke="black" stroke-width="3"/>
<line x1="935.25" y1="32.701" x2="974.221" y2="10.201" stroke="black" stroke-width="3"/>
<line x1="948.25" y1="32.701" x2="987.221" y2="10.201" stroke="black" stroke-width="3"/>
<line x1="961.25" y1="32.701" x2="1000.22" y2="10.201" stroke="black" stroke-width="3"/>
<line x1="974.25" y1="32.701" x2="1013.22" y2="10.201" stroke="black" stroke-width="3"/>
<line x1="987.25" y1="32.701" x2="1026.22" y2="10.201" stroke="black" stroke-width="3"/>
<line x1="1000.25" y1="32.701" x2="1039.22" y2="10.201" stroke="black" stroke-width="3"/>
<line x1="1013.25" y1="32.701" x2="1052.22" y2="10.201" stroke="black" stroke-width="3"/>
<line x1="1026.25" y1="32.701" x2="1065.22" y2="10.201" stroke="black" stroke-width="3"/>
<line x1="1039.25" y1="32.701" x2="1078.22" y2="10.201" stroke="black" stroke-width="3"/>
<line x1="1052.25" y1="32.701" x2="1091.22" y2="10.201" stroke="black" stroke-width="3"/>
<line x1="1065.25" y1="32.701" x2="1104.22" y2="10.201" stroke="black" stroke-width="3"/>
<line x1="1078.25" y1="32.701" x2="1117.22" y2="10.201" stroke="black" stroke-width="3"/>
<line x1="1091.25" y1="32.701" x2="1130.22" y2="10.201" stroke="black" stroke-width="3"/>
<line x1="1104.25" y1="32.701" x2="1143.22" y2="10.201" stroke="black" stroke-width="3"/>
<line x1="1117.25" y1="32.701" x2="1156.22" y2="10.201" stroke="black" stroke-width="3"/>
<line x1="1130.25" y1="32.701" x2="1169.22" y2="10.201" stroke="black" stroke-width="3"/>
<line x1="1143.25" y1="32.701" x2="1182.22" y2="10.201" stroke="black" stroke-width="3"/>
<line x1="1156.25" y1="32.701" x2="1195.22" y2="10.201" stroke="black" stroke-width="3"/>
<line x1="1169.25" y1="32.701" x2="1208.22" y2="10.201" stroke="black" stroke-width="3"/>
<line x1="1182.25" y1="32.701" x2="1221.22" y2="10.201" stroke="black" stroke-width="3"/>
<line x1="1195.25" y1="32.701" x2="1234.22" y2="10.201" stroke="black" stroke-width="3"/>
<line x1="1208.25" y1="32.701" x2="1247.22" y2="10.201" stroke="black" stroke-width="3"/>
<line x1="1221.25" y1="32.701" x2="1260.22" y2="10.201" stroke="black" stroke-width="3"/>
<line x1="1234.25" y1="32.701" x2="1273.22" y2="10.201" stroke="black" stroke-width="3"/>
<line x1="1247.25" y1="32.701" x2="1286.22" y2="10.201" stroke="black" stroke-width="3"/>
<line x1="1260.25" y1="32.701" x2="1299.22" y2="10.201" stroke="black" stroke-width="3"/>
<line x1="1273.25" y1="32.701" x2="1312.22" y2="10.201" stroke="black" stroke-width="3"/>
<line x1="1286.25" y1="32.701" x2="1325.22" y2="10.201" stroke="black" stroke-width="3"/>
<line x1="1299.25" y1="32.701" x2="1338.22" y2="10.201" stroke="black" stroke-width="3"/>
<line x1="1312.25" y1="32.701" x2="1351.22" y2="10.201" stroke="black" stroke-width="3"/>
<line x1="1325.25" y1="32.701" x2="1364.22" y2="10.201" stroke="black" stroke-width="3"/>
<line x1="1338.25" y1="32.701" x2="1377.22" y2="10.201" stroke="black" stroke-width="3"/>
<line x1="1351.25" y1="32.701" x2="1390.22" y2="10.201" stroke="black" stroke-width="3"/>
<line x1="1364.25" y1="32.701" x2="1403.22" y2="10.201" stroke="black" stroke-width="3"/>
<line x1="1377.25" y1="32.701" x2="1416.22" y2="10.201" stroke="black" stroke-width="3"/>
<line x1="1390.25" y1="32.701" x2="1429.22" y2="10.201" stroke="black" stroke-width="3"/>
<line x1="1403.25" y1="32.701" x2="1442.22" y2="10.201" stroke="black" stroke-width="3"/>
<line x1="1416.25" y1="32.701" x2="1455.22" y2="10.201" stroke="black" stroke-width="3"/>
<line x1="1429.25" y1="32.701" x2="1468.22" y2="10.201" stroke="black" stroke-width="3"/>
<line x1="1442.25" y1="32.701" x2="1481.22" y2="10.201" stroke="black" stroke-width="3"/>
<line x1="1455.25" y1="32.701" x2="1494.22" y2="10.201" stroke="black" stroke-width="3"/>
<line x1="1468.25" y1="32.701" x2="1507.22" y2="10.201" stroke="black" stroke-width="3"/>
<line x1="1481.25" y1="32.701" x2="1520.22" y2="10.201" stroke="black" stroke-width="3"/>
<line x1="1494.25" y1="32.701" x2="1533.22" y2="10.201" stroke="black" stroke-width="3"/>
<line x1="1507.25" y1="32.701" x2="1546.22" y2="10.201" stroke="black" stroke-width="3"/>
<line x1="1520.25" y1="32.701" x2="1559.22" y2="10.201" stroke="black" stroke-width="3"/>
<line x1="1533.25" y1="32.701" x2="1572.22" y2="10.201" stroke="black" stroke-width="3"/>
<line x1="1546.25" y1="32.701" x2="1585.22" y2="10.201" stroke="black" stroke-width="3"/>
<line x1="1559.25" y1="32.701" x2="1598.22" y2="10.201" stroke="black" stroke-width="3"/>
<line x1="1572.25" y1="32.701" x2="1611.22" y2="10.201" stroke="black" stroke-width="3"/>
<line x1="1585.25" y1="32.701" x2="1624.22" y2="10.201" stroke="black" stroke-width="3"/>
<line x1="1598.25" y1="32.701" x2="1637.22" y2="10.201" stroke="black" stroke-width="3"/>
<line x1="1611.25" y1="32.701" x2="1650.22" y2="10.201" stroke="black" stroke-width="3"/>
<line x1="1624.25" y1="32.701" x2="1663.22" y2="10.201" stroke="black" stroke-width="3"/>
<line x1="1637.25" y1="32.701" x2="1676.22" y2="10.201" stroke="black" stroke-width="3"/>
<line x1="1650.25" y1="32.701" x2="1689.22" y2="10.201" stroke="black" stroke-width="3"/>
<line x1="1663.25" y1="32.701" x2="1702.22" y2="10.201" stroke="black" stroke-width="3"/>
<line x1="1676.25" y1="32.701" x2="1715.22" y2="10.201" stroke="black" stroke-width="3"/>
<line x1="1689.25" y1="32.701" x2="1728.22" y2="10.201" stroke="black" stroke-width="3"/>
<line x1="1702.25" y1="32.701" x2="1741.22" y2="10.201" stroke="black" stroke-width="3"/>
<line x1="1715.25" y1="32.701" x2="1754.22" y2="10.201" stroke="black" stroke-width="3"/>
<line x1="1728.25" y1="32.701" x2="1767.22" y2="10.201" stroke="black" stroke-width="3"/>
<line x1="1741.25" y1="32.701" x2="1780.22" y2="10.201" stroke="black" stroke-width="3"/>
<line x1="1754.25" y1="32.701" x2="1793.22" y2="10.201" stroke="black" stroke-width="3"/>
<line x1="1767.25" y1="32.701" x2="1806.22" y2="10.201" stroke="black" stroke-width="3"/>
<line x1="1780.25" y1="32.701" x2="1819.22" y2="10.201" stroke="black" stroke-width="3"/>
<line x1="1793.25" y1="32.701" x2="1832.22" y2="10.201" stroke="black" stroke-width="3"/>
</g>
<defs>
<clipPath id="clip0_8_2">
<rect width="1800" height="30" fill="white"/>
</clipPath>
</defs>
</svg>
