<svg width="1148" height="620" viewBox="0 0 1148 620" fill="none" xmlns="http://www.w3.org/2000/svg">
<path d="M69.3714 0C117.929 0 147.064 26.3623 147.064 66.0406C147.064 105.721 117.929 132.079 69.3714 132.079H57.9941V187.573C57.9941 189.514 56.0506 191.458 53.5554 191.458H3.8871C1.94355 191.458 0 189.514 0 187.573V4.16171C0 1.94355 1.94355 0 3.8871 0H69.3714Z" fill="#231F20"/>
<path d="M305.507 0C308.282 0 310.225 2.22289 310.225 4.71802V120.425C310.225 169.537 283.865 195.342 233.643 195.342C183.972 195.342 157.612 169.537 157.059 120.425V4.71802C157.059 2.22289 159.279 0 161.777 0H305.507Z" fill="#231F20"/>
<path d="M487.815 0C490.315 0 491.977 1.94355 491.977 4.16171V187.573C491.977 189.514 490.315 191.458 487.815 191.458H439.811C437.87 191.458 435.373 190.071 433.985 187.852L385.707 101.557V187.573C385.707 189.514 384.04 191.458 381.543 191.458H332.43C330.21 191.458 328.543 189.514 328.543 187.573V4.16171C328.543 1.94355 330.21 0 332.43 0H380.432C382.93 0 385.707 1.38723 386.814 3.61013L434.819 89.9029V4.16171C434.819 1.94355 436.76 0 438.703 0H487.815Z" fill="#231F20"/>
<path d="M675.675 188.127C677.062 190.071 675.949 191.458 673.731 191.458H609.357C607.416 191.458 604.639 190.071 603.529 188.127L569.123 118.76V187.573C569.123 189.514 567.458 191.458 564.961 191.458H515.849C513.905 191.458 511.962 189.514 511.962 187.573V4.16171C511.962 1.94355 513.905 0 515.849 0H564.961C567.458 0 569.123 1.94355 569.123 4.16171V66.3199L602.421 3.33079C603.529 1.38723 606.303 0 608.803 0H669.57C671.788 0 672.621 1.38723 671.511 3.33079L616.57 91.2902L675.675 188.127Z" fill="#231F20"/>
<path d="M109.05 348.706C110.991 348.706 112.655 350.368 112.655 352.588L108.773 394.764C108.496 396.705 106.552 398.649 104.334 398.649H4.16408C1.94355 398.649 0 396.705 0 394.764V211.353C0 209.134 1.94355 207.191 4.16408 207.191H53.2761C55.4966 207.191 57.4378 209.134 57.4378 211.353V348.706H109.05Z" fill="#231F20"/>
<path d="M177.316 207.191C179.813 207.191 181.477 209.134 181.477 211.353V394.764C181.477 396.705 179.813 398.649 177.316 398.649H128.201C126.26 398.649 124.316 396.705 124.316 394.764V211.353C124.316 209.134 126.26 207.191 128.201 207.191H177.316Z" fill="#231F20"/>
<path d="M329.095 207.191C331.592 207.191 333.257 209.134 333.257 211.073V252.974C333.257 255.472 331.592 257.138 329.095 257.138H258.618V282.386H314.389C316.887 282.386 318.274 284.329 317.997 285.991L314.112 324.841C313.835 326.505 311.894 328.446 309.394 328.446H258.618V394.764C258.618 396.705 256.675 398.649 254.456 398.649H205.342C203.121 398.649 201.455 396.43 201.455 394.487V211.073C201.455 209.134 203.121 207.191 205.342 207.191H329.095Z" fill="#231F20"/>
<path d="M477.83 348.706C480.048 348.706 481.992 350.368 481.992 352.311V394.764C481.992 396.705 480.048 398.649 477.83 398.649H348.803C346.862 398.649 344.918 396.43 344.362 394.487V211.073C344.362 208.578 345.749 207.191 348.249 207.191H474.499C476.997 207.191 478.938 209.134 478.938 211.073V252.974C478.938 255.472 476.997 257.138 474.499 257.138H402.079V279.057H460.904C463.399 279.057 464.789 280.999 464.509 282.665L460.625 321.508C460.348 323.174 458.404 325.118 455.909 325.118H402.079V348.706H477.83Z" fill="#231F20"/>
<path d="M87.4055 414.379C123.755 414.379 147.897 436.024 147.897 468.491C147.897 488.466 138.186 503.172 123.201 507.613C140.682 512.054 152.059 528.699 152.059 551.732C152.059 584.198 127.917 605.839 91.8465 605.839H3.8871C1.66658 605.839 0 603.896 0 601.955V418.543C0 416.602 1.66658 414.379 3.8871 414.379H87.4055Z" fill="#231F20"/>
<path d="M245.579 480.699L211.17 602.234C210.06 604.452 207.842 605.839 205.342 605.839H150.404C148.184 605.839 147.073 603.896 147.904 602.234L210.616 417.989C211.447 416.325 214.499 414.379 217.276 414.379H273.88C276.655 414.379 279.708 416.325 280.539 417.989L343.247 602.234C344.08 603.896 342.972 605.839 340.752 605.839H285.811C283.314 605.839 281.096 604.452 279.983 602.234L245.579 480.699Z" fill="#231F20"/>
<path d="M457.855 555.894C459.796 555.894 461.46 557.556 461.46 559.779L457.575 601.955C457.298 603.896 455.355 605.839 453.137 605.839H352.967C350.749 605.839 348.805 603.896 348.805 601.955V418.543C348.805 416.325 350.749 414.379 352.967 414.379H402.081C404.299 414.379 406.243 416.325 406.243 418.543V555.894H457.855Z" fill="#231F20"/>
<path d="M556.36 480.699L521.954 602.234C520.844 604.452 518.626 605.839 516.126 605.839H461.188C458.967 605.839 457.857 603.896 458.69 602.234L521.4 417.989C522.231 416.325 525.283 414.379 528.059 414.379H584.664C587.438 414.379 590.492 416.325 591.323 417.989L654.033 602.234C654.864 603.896 653.756 605.839 651.535 605.839H596.595C594.098 605.839 591.877 604.452 590.767 602.234L556.36 480.699Z" fill="#231F20"/>
<path d="M818.861 414.379C821.358 414.379 823.023 416.325 823.023 418.543V601.955C823.023 603.896 821.358 605.839 818.861 605.839H770.857C768.913 605.839 766.418 604.452 765.031 602.234L716.75 515.939V601.955C716.75 603.896 715.083 605.839 712.588 605.839H663.474C661.253 605.839 659.589 603.896 659.589 601.955V418.543C659.589 416.325 661.253 414.379 663.474 414.379H711.475C713.975 414.379 716.75 415.767 717.86 417.989L765.862 504.282V418.543C765.862 416.325 767.805 414.379 769.747 414.379H818.861Z" fill="#231F20"/>
<path d="M994.787 588.911C995.618 590.857 994.508 592.8 992.289 593.908C976.196 603.896 954.552 610.001 934.018 610.001C876.86 610.001 838.569 570.043 838.569 510.111C838.569 450.175 876.86 410.218 934.018 410.218C954.552 410.218 976.196 416.325 992.289 426.311C994.508 427.423 995.618 429.364 994.787 431.308L976.471 469.878C975.363 472.373 973.42 473.204 971.201 472.096C960.934 466.268 950.944 464.327 939.013 464.327C914.041 464.327 897.394 482.64 897.394 510.111C897.394 537.581 914.041 555.894 939.013 555.894C950.944 555.894 960.934 553.951 971.201 548.122C973.42 547.014 975.363 547.845 976.471 550.345L994.787 588.911Z" fill="#231F20"/>
<path d="M1143.52 555.894C1145.74 555.894 1147.68 557.558 1147.68 559.502V601.955C1147.68 603.896 1145.74 605.839 1143.52 605.839H1014.49C1012.55 605.839 1010.61 603.621 1010.05 601.678V418.264C1010.05 415.769 1011.44 414.379 1013.94 414.379H1140.19C1142.69 414.379 1144.63 416.325 1144.63 418.264V460.165C1144.63 462.663 1142.69 464.327 1140.19 464.327H1067.77V486.248H1126.59C1129.09 486.248 1130.47 488.189 1130.2 489.854L1126.31 528.699C1126.03 530.365 1124.09 532.309 1121.6 532.309H1067.77V555.894H1143.52Z" fill="#231F20"/>
</svg>
