<svg width="100%" height="100%" viewBox="0 0 450 450" version="1.1" xmlns="http://www.w3.org/2000/svg" xmlns:xlink="http://www.w3.org/1999/xlink" xml:space="preserve" style="fill-rule:evenodd;clip-rule:evenodd;stroke-linejoin:round;stroke-miterlimit:2;">
    <g transform="matrix(1,0,0,1,-228.092,-185.674)">
        <path d="M677.787,410.522C677.787,534.702 577.119,635.369 452.939,635.369C328.76,635.369 228.092,534.702 228.092,410.522C228.092,286.342 328.76,185.674 452.939,185.674C577.119,185.674 677.787,286.342 677.787,410.522Z" style="fill:rgb(35,31,32);"/>
        <path d="M410.784,580.183L472.124,580.183L472.124,438.682L517.432,438.682L526.494,381.524L472.124,381.524L472.124,338.307C472.124,322.275 487.459,313.213 502.097,313.213L528.585,313.213L528.585,265.814L481.185,263.723C435.877,260.935 410.784,296.484 410.784,339.004L410.784,381.524L359.202,381.524L359.202,438.682L410.784,438.682L410.784,580.183Z" style="fill:white;"/>
    </g>
</svg>
