<svg width="100%" height="100%" viewBox="0 0 450 450" version="1.1" xmlns="http://www.w3.org/2000/svg" xmlns:xlink="http://www.w3.org/1999/xlink" xml:space="preserve" style="fill-rule:evenodd;clip-rule:evenodd;stroke-linejoin:round;stroke-miterlimit:2;">
    <g transform="matrix(1,0,0,1,-875.984,-185.674)">
        <path d="M1325.68,410.522C1325.68,534.702 1225.01,635.369 1100.83,635.369C976.652,635.369 875.984,534.702 875.984,410.522C875.984,286.342 976.652,185.674 1100.83,185.674C1225.01,185.674 1325.68,286.342 1325.68,410.522Z" style="fill:rgb(35,31,32);"/>
        <path d="M1035.38,291.963L1166.28,291.963C1195.75,291.963 1219.73,315.948 1219.73,345.417L1219.73,475.626C1219.73,505.095 1195.75,529.081 1166.28,529.081L1035.38,529.081C1005.92,529.081 981.93,505.095 981.93,475.626L981.93,345.417C981.93,315.948 1005.92,291.963 1035.38,291.963ZM1100.49,359.123L1101.17,359.123C1129.27,359.123 1152.57,382.424 1152.57,410.522C1152.57,439.305 1129.27,462.605 1101.17,462.605L1100.49,462.605C1072.39,462.605 1049.09,439.305 1049.09,410.522C1049.09,382.424 1072.39,359.123 1100.49,359.123ZM1100.49,332.396L1101.17,332.396C1143.66,332.396 1179.3,368.032 1179.3,410.522C1179.3,453.696 1143.66,488.647 1101.17,488.647L1100.49,488.647C1058,488.647 1023.05,453.696 1023.05,410.522C1023.05,368.032 1058,332.396 1100.49,332.396ZM1177.93,317.319C1186.84,317.319 1194.38,324.858 1194.38,333.767C1194.38,342.676 1186.84,350.214 1177.93,350.214C1168.34,350.214 1161.48,342.676 1161.48,333.767C1161.48,324.858 1168.34,317.319 1177.93,317.319ZM1034.7,267.291L1166.96,267.291C1209.45,267.291 1244.4,302.242 1244.4,344.732L1244.4,476.311C1244.4,518.801 1209.45,553.752 1166.96,553.752L1034.7,553.752C992.21,553.752 957.259,518.801 957.259,476.311L957.259,344.732C957.259,302.242 992.21,267.291 1034.7,267.291Z" style="fill:white;"/>
    </g>
</svg>
