<svg width="100%" height="100%" viewBox="0 0 450 450" version="1.1" xmlns="http://www.w3.org/2000/svg" xmlns:xlink="http://www.w3.org/1999/xlink" xml:space="preserve" style="fill-rule:evenodd;clip-rule:evenodd;stroke-linejoin:round;stroke-miterlimit:2;">
    <g transform="matrix(1,0,0,1,-228.092,-789.631)">
        <path d="M677.787,1014.48C677.787,1138.66 577.119,1239.33 452.939,1239.33C328.76,1239.33 228.092,1138.66 228.092,1014.48C228.092,890.298 328.76,789.631 452.939,789.631C577.119,789.631 677.787,890.298 677.787,1014.48Z" style="fill:rgb(35,31,32);"/>
        <path d="M370.378,919.348C397.301,917.195 429.07,916.118 453.3,916.118C477.531,916.118 508.762,917.195 536.223,919.348C567.992,922.041 584.146,927.426 588.454,959.194C590.607,973.733 591.684,993.656 591.684,1014.12C591.684,1034.58 590.607,1055.04 588.454,1069.04C584.146,1101.35 567.992,1106.19 536.223,1108.89C508.762,1111.58 477.531,1112.12 453.3,1112.12C429.07,1112.12 397.301,1111.58 370.378,1108.89C338.609,1106.19 321.916,1101.35 317.609,1069.04C315.993,1055.04 314.916,1034.58 314.916,1014.12C314.916,993.656 315.993,973.733 317.609,959.194C321.916,927.426 338.609,922.041 370.378,919.348Z" style="fill:white;"/>
        <path d="M425.301,972.656L497.454,1014.12L425.301,1056.12L425.301,972.656Z" style="fill:rgb(35,31,32);"/>
    </g>
</svg>
